<svg class="hs-poly-svg" viewBox="0 0 1138 1010" preserveAspectRatio="none">           <polygon class="imp-shape imp-shape-poly" style="width: 100%; height: 100%; fill: rgba(0, 0, 0, 0); stroke: rgba(255, 255, 255, 0); stroke-width: 0px; stroke-dasharray: 10, 10; stroke-linecap: round; opacity: 1; transform: scale(1, 1); transform-origin: 60.75% 66.75%;" data-index="0" id="poly-6475" points="556.1975,614.9901098901099 564.7325,608.9967032967033 573.2674999999999,608.9967032967033 580.38,606 580.38,614.9901098901099 587.4925,623.9802197802198 598.8725,626.9769230769231 607.4074999999999,628.4752747252747 617.365,626.9769230769231 620.2099999999999,631.471978021978 633.0124999999999,625.4785714285714 634.435,620.9835164835165 640.125,619.4851648351648 657.1949999999999,613.4917582417582 671.42,611.9934065934066 679.9549999999999,611.9934065934066 685.645,607.4983516483517 691.3349999999999,614.9901098901099 701.2924999999999,620.9835164835165 714.0949999999999,628.4752747252747 724.0525,632.9703296703296 732.5875,632.9703296703296 732.5875,635.967032967033 741.1225,628.4752747252747 748.235,632.9703296703296 752.5024999999999,634.4686813186813 762.4599999999999,629.9736263736264 772.4175,625.4785714285714 780.9524999999999,620.9835164835165 786.6424999999999,622.4818681318682 795.1775,617.9868131868132 807.98,628.4752747252747 809.4024999999999,640.4620879120879 809.4024999999999,647.9538461538461 827.895,661.439010989011 822.2049999999999,667.4324175824175 825.05,679.4192307692308 825.05,689.9076923076923 823.6274999999999,698.8978021978022 825.05,704.8912087912088 830.74,707.8879120879121 825.05,715.3796703296704 812.2475,709.3862637362638 802.29,710.8846153846155 796.5999999999999,715.3796703296704 786.6424999999999,715.3796703296704 776.685,715.3796703296704 765.305,718.3763736263736 756.77,724.3697802197803 742.545,725.8681318681319 731.165,724.3697802197803 722.63,727.3664835164835 718.3625,727.3664835164835 708.405,724.3697802197803 708.405,733.3598901098901 698.4475,742.35 698.4475,736.3565934065934 698.4475,731.8615384615384 695.6025,727.3664835164835 692.7574999999999,731.8615384615384 691.3349999999999,734.8582417582418 685.645,731.8615384615384 679.9549999999999,728.8648351648352 675.6875,728.8648351648352 668.5749999999999,734.8582417582418 665.7299999999999,737.8549450549451 658.6175,737.8549450549451 652.9275,737.8549450549451 645.8149999999999,737.8549450549451 641.5474999999999,733.3598901098901 635.8575,728.8648351648352 627.3225,725.8681318681319 617.365,724.3697802197803 615.9425,731.8615384615384 613.0975,737.8549450549451 608.8299999999999,736.3565934065934 607.4074999999999,740.8516483516484 601.7175,737.8549450549451 594.6049999999999,728.8648351648352 591.76,728.8648351648352 587.4925,727.3664835164835 587.4925,727.3664835164835 587.4925,722.8714285714286 580.38,721.373076923077 576.1125,721.373076923077 574.6899999999999,718.3763736263736 571.8449999999999,712.382967032967 567.5775,704.8912087912088 566.155,700.3961538461539 559.0424999999999,700.3961538461539 557.62,694.4027472527473 561.8874999999999,692.9043956043956 561.8874999999999,689.9076923076923 561.8874999999999,683.9142857142857 560.4649999999999,676.4225274725275 557.62,673.4258241758242 551.93,673.4258241758242 560.4649999999999,667.4324175824175 557.62,664.4357142857143 553.3525,662.9373626373626 554.775,655.4456043956044 556.1975,652.4489010989012 559.0424999999999,649.4521978021978 559.0424999999999,644.9571428571429 560.4649999999999,638.9637362637362 557.62,640.4620879120879 553.3525,640.4620879120879 553.3525,637.4653846153847 554.775,628.4752747252747            "></polygon>           <polygon class="imp-shape imp-shape-poly" style="width: 100%; height: 100%; fill: rgba(0, 0, 0, 0); stroke: rgba(255, 255, 255, 0); stroke-width: 0px; stroke-dasharray: 10, 10; stroke-linecap: round; opacity: 1; transform: scale(1, 1); transform-origin: 11.2% 63.6%;" data-index="1" id="poly-2187" points="41.254813008130085,569.8924999999999 49.80369105691057,566.9346428571429 56.92775609756099,559.54 65.47663414634147,559.54 71.17588617886179,561.0189285714285 82.57439024390244,561.0189285714285 91.12326829268292,561.0189285714285 102.52177235772359,562.4978571428571 109.645837398374,563.9767857142857 118.19471544715446,565.4557142857143 123.89396747967481,566.9346428571429 131.01803252032522,568.4135714285713 135.29247154471545,568.4135714285713 142.41653658536586,568.4135714285713 152.39022764227644,572.8503571428571 159.51429268292685,578.7660714285714 168.06317073170734,584.6817857142856 175.18723577235775,581.7239285714286 182.31130081300816,581.7239285714286 186.5857398373984,584.6817857142856 195.1346178861789,592.0764285714286 202.2586829268293,590.5975 205.10830894308947,593.5553571428571 213.65718699186993,592.0764285714286 215.08200000000002,600.9499999999999 206.53312195121956,606.8657142857143 199.40905691056912,609.8235714285714 197.98424390243906,614.2603571428571 188.01055284552848,618.6971428571428 178.0368617886179,623.1339285714286 173.76242276422767,630.5285714285714 166.63835772357726,636.4442857142857 160.9391056910569,643.8389285714285 153.8150406504065,648.2757142857142 153.8150406504065,657.1492857142857 153.8150406504065,664.5439285714285 156.66466666666665,673.4175 150.96541463414636,677.8542857142857 143.84134959349595,683.77 139.5669105691057,689.6857142857142 139.5669105691057,698.5592857142857 133.8676585365854,698.5592857142857 125.31878048780487,701.5171428571427 119.61952845528455,707.4328571428571 116.7699024390244,710.3907142857142 108.22102439024391,713.3485714285714 99.67214634146342,713.3485714285714 92.54808130081302,711.8696428571428 86.84882926829269,711.8696428571428 79.72476422764228,719.2642857142857 72.60069918699187,719.2642857142857 59.77738211382115,725.18 55.5029430894309,717.785357142857 54.07813008130081,713.3485714285714 49.80369105691057,705.9539285714285 45.52925203252033,702.9960714285714 39.830000000000005,694.1225 42.679626016260165,689.6857142857142 48.37887804878049,683.77 45.52925203252033,676.3753571428571 48.37887804878049,668.9807142857143 52.65331707317074,664.5439285714285 48.37887804878049,655.6703571428571 51.22850406504066,652.7125 55.5029430894309,652.7125 58.35256910569106,648.2757142857142 58.35256910569106,643.8389285714285 58.35256910569106,637.9232142857143 64.05182113821138,632.0074999999999 61.20219512195122,620.1760714285714 65.47663414634147,618.6971428571428 68.32626016260163,615.7392857142856 74.02551219512196,609.8235714285714 74.02551219512196,603.9078571428571 66.90144715447155,596.5132142857143 64.05182113821138,597.9921428571428 56.92775609756099,597.9921428571428 51.22850406504066,597.9921428571428 45.52925203252033,593.5553571428571 44.10443902439025,589.1185714285714            "></polygon>           <polygon class="imp-shape imp-shape-poly" style="width: 100%; height: 100%; fill: rgba(0, 0, 0, 0); stroke: rgba(255, 255, 255, 0.75); stroke-width: 0px; stroke-dasharray: 10, 10; stroke-linecap: round; opacity: 1; transform: scale(1, 1); transform-origin: 19.75% 49.55%;" data-index="2" id="poly-6470" points="243.92897674418603,404 252.4507441860465,412.51073529411764 259.55221705426356,416.7661029411765 262.3928062015504,428.11375 269.49427906976746,428.11375 278.0160465116279,433.78757352941176 286.53781395348835,439.46139705882354 293.63928682170547,442.2983088235294 302.1610542635659,446.55367647058824 310.68282170542636,449.3905882352941 316.36400000000003,452.22749999999996 309.2625271317829,460.73823529411766 303.5813488372093,466.4120588235294 302.1610542635659,474.9227941176471 300.74075968992247,480.5966176470588 293.63928682170547,482.0150735294117 286.53781395348835,484.85198529411764 287.9581085271318,491.94426470588235 280.85663565891474,496.19963235294114 273.7551627906977,501.8734558823529 268.073984496124,513.2211029411765 279.43634108527135,513.2211029411765 283.6972248062016,521.731838235294 285.11751937984496,527.4056617647059 280.85663565891474,534.4979411764706 273.7551627906977,538.7533088235294 280.85663565891474,541.5902205882353 280.85663565891474,550.100955882353 282.27693023255813,557.1932352941177 286.53781395348835,558.6116911764706 280.85663565891474,565.7039705882353 278.0160465116279,569.9593382352941 275.1754573643411,572.79625 270.91457364341085,577.0516176470588 262.3928062015504,578.4700735294118 253.8710387596899,574.214705882353 249.61015503875967,571.377794117647 243.92897674418603,571.377794117647 235.40720930232558,568.5408823529413 222.62455813953488,577.0516176470588 219.78396899224805,582.7254411764706 216.9433798449612,592.6546323529412 211.2622015503876,592.6546323529412 207.00131782945738,596.91 201.3201395348837,592.6546323529412 194.21866666666665,594.0730882352941 187.1171937984496,584.1438970588235 181.43601550387598,584.1438970588235 170.07365891472867,586.9808088235294 161.5518914728682,578.4700735294118 155.87071317829458,574.214705882353 153.03012403100774,567.1224264705883 157.29100775193797,557.1932352941177 162.9721860465116,544.4271323529412 164.39248062015503,540.1717647058824 161.5518914728682,537.3348529411765 167.23306976744186,524.56875 170.07365891472867,528.8241176470588 172.9142480620155,521.731838235294 171.49395348837209,517.4764705882353 170.07365891472867,508.9657352941176 165.81277519379844,501.8734558823529 162.9721860465116,494.7811764705882 167.23306976744186,489.1073529411765 164.39248062015503,483.4335294117647 160.1315968992248,487.6888970588235 160.1315968992248,483.4335294117647 158.71130232558139,479.17816176470586 153.03012403100774,476.34125 147.3489457364341,474.9227941176471 140.24747286821705,474.9227941176471 134.5662945736434,469.2489705882353 138.82717829457363,466.4120588235294 133.146,459.31977941176467 140.24747286821705,453.64595588235295 147.3489457364341,455.0644117647059 157.29100775193797,452.22749999999996 158.71130232558139,455.0644117647059 162.9721860465116,453.64595588235295 165.81277519379844,455.0644117647059 168.65336434108525,453.64595588235295 175.7548372093023,456.4828676470588 180.01572093023256,453.64595588235295 177.17513178294573,449.3905882352941 180.01572093023256,445.13522058823526 180.01572093023256,436.6244852941176 184.27660465116278,433.78757352941176 184.27660465116278,438.04294117647055 188.537488372093,438.04294117647055 195.63896124031007,439.46139705882354 199.89984496124032,439.46139705882354 207.00131782945738,433.78757352941176 209.84190697674418,429.5322058823529 214.1027906976744,428.11375 221.20426356589147,426.69529411764705 225.46514728682172,426.69529411764705 229.72603100775194,423.8583823529412 229.72603100775194,418.1845588235294 231.14632558139533,413.92919117647057 232.56662015503875,409.6738235294118 236.827503875969,406.83691176470586            "></polygon>           <polygon class="imp-shape imp-shape-poly" style="width: 100%; height: 100%; fill: rgba(0, 0, 0, 0); stroke: rgba(255, 255, 255, 0); stroke-width: 0px; stroke-dasharray: 10, 10; stroke-linecap: round; opacity: 1; transform: scale(1, 1); transform-origin: 47.75% 51.9%;" data-index="3" id="poly-2055" points="477.96,521.3382352941177 486.495,514.2088235294118 493.60749999999996,508.50529411764705 497.875,495.6723529411765 500.71999999999997,487.1170588235294 507.8325,481.4135294117647 519.2125,479.98764705882354 526.3249999999999,481.4135294117647 533.4375,481.4135294117647 537.7049999999999,478.5617647058824 544.8175,485.6911764705883 551.93,479.98764705882354 559.0425,481.4135294117647 566.155,479.98764705882354 569,475.71000000000004 574.6899999999999,482.8394117647059 580.38,492.82058823529417 584.6475,502.80176470588236 586.0699999999999,509.93117647058824 586.0699999999999,519.9123529411766 584.6475,527.0417647058823 584.6475,535.5970588235294 587.4925,541.3005882352942 593.1825,537.0229411764707 600.295,535.5970588235294 604.5625,535.5970588235294 608.8299999999999,539.874705882353 604.5625,545.5782352941177 600.295,548.4300000000001 597.4499999999999,541.3005882352942 593.1825,548.4300000000001 591.76,554.1335294117648 591.76,559.8370588235294 590.3375,565.5405882352942 588.915,568.3923529411766 580.38,566.9664705882353 573.2674999999999,562.6888235294118 566.155,561.2629411764706 561.8874999999999,565.5405882352942 554.775,566.9664705882353 550.5074999999999,568.3923529411766 544.8175,569.8182352941177 540.55,572.6700000000001 533.4375,572.6700000000001 523.48,571.2441176470588 516.3675,571.2441176470588 510.6775,565.5405882352942 506.40999999999997,559.8370588235294 506.40999999999997,552.7076470588236 493.60749999999996,554.1335294117648 490.7625,547.0041176470588 487.91749999999996,538.4488235294118 483.65,529.8935294117647            "></polygon>           <polygon class="imp-shape imp-shape-poly" style="width: 100%; height: 100%; fill: rgba(0, 0, 0, 0); stroke: rgba(255, 255, 255, 0); stroke-width: 0px; stroke-dasharray: 10, 10; stroke-linecap: round; opacity: 1; transform: scale(1, 1); transform-origin: 31.15% 39.95%;" data-index="4" id="poly-8090" points="316.87546067415735,452.98075630252094 291.32800000000003,440.07142857142856 292.74730337078654,437.2026890756302 292.74730337078654,431.4652100840335 292.74730337078654,421.42462184873943 294.16660674157305,408.51529411764704 301.26312359550565,404.2121848739495 299.84382022471914,392.73722689075623 299.84382022471914,388.43411764705877 304.10173033707866,385.56537815126046 308.35964044943825,384.1310084033613 311.19824719101126,379.82789915966384 312.61755056179777,372.656050420168 318.29476404494386,365.48420168067224 316.87546067415735,354.00924369747895 319.71406741573037,352.5748739495798 319.71406741573037,348.27176470588233 326.81058426966297,348.27176470588233 329.649191011236,352.5748739495798 336.7457078651686,349.7061344537815 341.0036179775281,345.403025210084 342.4229213483146,345.403025210084 352.35804494382023,348.27176470588233 348.1001348314607,338.2311764705882 346.6808314606742,335.3624369747899 346.6808314606742,331.0593277310924 348.1001348314607,323.8874789915966 350.9387415730337,318.15 355.1966516853933,319.58436974789913 359.45456179775283,319.58436974789913 365.1317752808989,329.62495798319327 372.22829213483146,332.4936974789916 372.22829213483146,338.2311764705882 376.48620224719104,339.66554621848735 380.74411235955057,341.0999159663865 383.58271910112364,338.2311764705882 392.0985393258427,335.3624369747899 397.7757528089888,333.92806722689073 402.03366292134837,339.66554621848735 407.7108764044944,342.5342857142857 414.807393258427,348.27176470588233 416.2266966292135,355.4436134453781 413.3880898876405,359.74672268907557 410.5494831460675,365.48420168067224 414.807393258427,371.22168067226886 417.646,379.82789915966384 416.2266966292135,386.9997478991596 414.807393258427,397.04033613445375 414.807393258427,402.77781512605037 414.807393258427,407.0809243697479 406.2915730337079,405.6465546218487 402.03366292134837,411.38403361344535 396.3564494382023,414.25277310924366 389.2599325842697,417.12151260504197 382.16341573033714,421.42462184873943 375.06689887640454,425.7277310924369 375.06689887640454,430.03084033613436 376.48620224719104,432.8995798319327 379.32480898876406,441.5057983193277 383.58271910112364,445.8089075630252 389.2599325842697,451.5463865546218 390.67923595505624,458.71823529411756 387.84062921348317,464.45571428571424 382.16341573033714,468.7588235294117 376.48620224719104,470.1931932773109 369.38968539325845,471.62756302521007 365.1317752808989,478.79941176470584 362.29316853932585,484.53689075630245 355.1966516853933,484.53689075630245 350.9387415730337,488.8399999999999 345.26152808988763,485.9712605042016 339.5843146067416,485.9712605042016 332.487797752809,485.9712605042016 325.3912808988764,481.66815126050415 319.71406741573037,481.66815126050415 314.0368539325843,484.53689075630245 308.35964044943825,481.66815126050415 302.68242696629216,484.53689075630245 301.26312359550565,475.93067226890753 304.10173033707866,471.62756302521007 306.94033707865174,467.32445378151255 311.19824719101126,461.5869747899159            "></polygon>           <polygon class="imp-shape imp-shape-poly" style="width: 100%; height: 100%; fill: rgba(0, 0, 0, 0); stroke: rgba(255, 255, 255, 0); stroke-width: 0px; stroke-dasharray: 10, 10; stroke-linecap: round; opacity: 1; transform: scale(1, 1); transform-origin: 41.85% 38.45%;" data-index="5" id="poly-2533" points="444.31867415730335,333.1133695652174 472.7047415730337,323.2 475.54334831460676,330.2809782608696 479.8012584269663,335.9457608695652 482.6398651685393,335.9457608695652 484.0591685393258,335.9457608695652 491.1556853932584,334.5295652173913 499.6715056179775,338.77815217391304 509.60662921348313,338.77815217391304 522.3803595505618,337.3619565217391 532.3154831460674,337.3619565217391 539.412,344.4429347826087 539.412,360.02108695652174 539.412,372.766847826087 529.4768764044944,384.09641304347826 535.1540898876405,391.1773913043478 535.1540898876405,398.2583695652174 533.7347865168539,405.33934782608696 537.9926966292135,409.58793478260867 536.5733932584269,413.83652173913043 539.412,420.9175 532.3154831460674,425.1660869565217 525.2189662921348,430.83086956521737 518.1224494382022,436.495652173913 516.7031460674157,450.65760869565213 513.8645393258427,453.49 508.1873258426966,444.9928260869565 499.6715056179775,444.9928260869565 492.5749887640449,447.82521739130436 485.4784719101124,447.82521739130436 481.2205617977528,449.24141304347825 472.7047415730337,443.5766304347826 467.0275280898876,440.7442391304348 465.60822471910114,433.6632608695652 459.93101123595505,432.2470652173913 452.83449438202246,429.41467391304343 445.7379775280899,425.1660869565217 442.89937078651684,422.3336956521739 438.6414606741573,427.99847826086955 432.9642471910112,425.1660869565217 432.9642471910112,420.9175 424.4484269662921,418.08510869565214 420.1905168539326,412.4203260869565 413.094,411.0041304347826 417.3519101123595,402.5069565217391 414.5133033707865,395.42597826086956 414.5133033707865,391.1773913043478 417.3519101123595,378.4316304347826 414.5133033707865,374.18304347826086 413.094,367.1020652173913 413.094,364.26967391304345 417.3519101123595,361.4372826086956 418.7712134831461,354.3563043478261 424.4484269662921,351.5239130434783 420.1905168539326,347.2753260869565 428.7063370786517,343.02673913043475            "></polygon>           <polygon class="imp-shape imp-shape-poly" style="width: 100%; height: 100%; fill: rgba(0, 0, 0, 0); stroke: rgba(255, 255, 255, 0); stroke-width: 0px; stroke-dasharray: 10, 10; stroke-linecap: round; opacity: 1; transform: scale(1, 1); transform-origin: 41.3% 49.1%;" data-index="6" id="poly-7099" points="466.04079490909095,471.78597457894733 479.89115151515153,470.862 488.3744242424243,464.6 502.5132121212121,466.16550000000007 508.1687272727273,472.42750000000007 516.652,475.55850000000004 508.1687272727273,481.82050000000004 499.6854545454546,489.648 496.85769696969703,500.60650000000004 491.2021818181819,508.434 485.5466666666667,513.1305000000001 477.063393939394,516.2615000000001 474.23563636363644,520.958 468.5801212121213,517.827 461.5107272727273,519.3925 454.4413333333334,522.5235 447.3719393939395,527.22 440.3025454545455,525.6545000000001 430.40539393939406,517.827 423.33600000000007,506.86850000000004 423.33600000000007,499.04100000000005 428.9915151515152,489.648 427.57763636363643,481.82050000000004 433.2331515151516,481.82050000000004 436.06090909090915,477.124 452.74609266666675,486.44037289473687            "></polygon>           <polygon class="imp-shape imp-shape-poly" style="width: 100%; height: 100%; fill: rgba(0, 0, 0, 0); stroke: rgba(255, 255, 255, 0); stroke-width: 0px; stroke-dasharray: 10, 10; stroke-linecap: round; opacity: 1; transform: scale(1, 1); transform-origin: 55.65% 46.7%;" data-index="7" id="poly-2243" points="607.7508620689655,539.3731147540984 599.2354827586206,537.9326229508197 587.8816436781608,537.9326229508197 597.8162528735631,529.2896721311475 600.6547126436781,517.765737704918 609.1700919540228,516.3252459016393 614.8470114942528,510.5632786885245 609.5196122022196,497.44118942992554 601.5090890344827,480.57284586712683 587.316790183908,472.850596755824 575.1085747126435,473.11049180327865 560.9162758620689,481.75344262295084 552.400896551724,480.3129508196721 548.1432068965516,486.07491803278685 539.6278275862069,480.3129508196721 531.112448275862,483.1939344262295 525.4355287356321,478.8724590163934 516.9201494252874,475.9914754098361 509.82399999999996,468.7890163934426 512.6624597701149,457.2650819672131 516.9201494252874,452.94360655737705 516.9201494252874,439.97918032786885 531.112448275862,427.01475409836064 538.2085977011494,422.6932786885246 538.2085977011494,412.60983606557375 536.7893678160918,399.6454098360656 543.8855172413793,399.6454098360656 552.400896551724,393.88344262295084 560.9162758620689,395.3239344262295 566.5931954022988,392.44295081967215 572.2701149425287,398.2049180327869 582.204724137931,395.3239344262295 603.493172413793,405.40737704918035 612.0085517241379,406.84786885245904 617.6854712643677,403.96688524590166 626.2008505747125,403.96688524590166 630.458540229885,398.2049180327869 630.458540229885,389.56196721311477 637.5546896551723,391.00245901639346 641.8123793103448,388.1214754098361 646.0700689655172,392.44295081967215 650.3277586206896,383.8 657.423908045977,385.2404918032787 664.5200574712643,385.2404918032787 673.0354367816092,385.2404918032787 677.2931264367814,391.00245901639346 681.550816091954,393.88344262295084 680.1315862068965,401.0859016393443 685.8085057471264,408.28836065573773 694.3238850574711,412.60983606557375 694.3238850574711,421.2527868852459 697.1623448275861,424.13377049180326 701.4200344827585,422.6932786885246 707.0969540229884,425.57426229508195 708.516183908046,429.895737704918 715.6123333333333,429.895737704918 721.2892528735631,429.895737704918 726.966172413793,435.6577049180328 732.6430919540229,438.53868852459016 736.9007816091953,435.6577049180328 739.7392413793103,441.41967213114754 745.4161609195401,444.30065573770486 752.5123103448275,447.1816393442623 756.77,452.94360655737705 751.09308045977,457.2650819672131 749.6738505747126,463.0270491803278 752.5123103448275,465.9080327868852 751.09308045977,474.55098360655734 749.6738505747126,480.3129508196721 743.9969310344826,480.3129508196721 739.7392413793103,484.63442622950816 732.6430919540229,487.5154098360655 729.8046321839079,496.1583606557377 719.8700229885056,501.92032786885244 709.9354137931034,506.2418032786885 704.2584942528733,510.5632786885245 697.1623448275861,510.5632786885245 691.4854252873562,512.0037704918033 680.1315862068965,516.3252459016393 667.3585172413792,517.765737704918 673.0354367816092,526.4086885245902 678.712356321839,526.4086885245902 684.3892758620689,533.6111475409837 690.0661954022987,537.9326229508197 695.7431149425286,539.3731147540984 705.6777241379309,539.3731147540984 698.5815747126436,545.1350819672131 688.6469655172413,548.0160655737704 680.1315862068965,549.4565573770492 674.4546666666665,550.8970491803279 668.7777471264367,559.54 663.1008275862068,553.7780327868852 665.9392873563218,548.0160655737704 657.423908045977,540.813606557377 651.746988505747,530.7301639344262 664.5200574712643,530.7301639344262 658.8431379310343,520.6467213114754 650.3277586206896,520.6467213114754 644.6508390804597,516.3252459016393 646.0700689655172,510.5632786885245 641.8123793103448,509.12278688524583 634.7162298850574,509.12278688524583 627.62008045977,512.0037704918033 623.3623908045977,514.8847540983606 619.1047011494252,516.3252459016393 617.6854712643677,524.9681967213114 612.0085517241379,527.8491803278688 604.9124022988505,527.8491803278688            "></polygon>           <polygon class="imp-shape imp-shape-poly" style="width: 100%; height: 100%; fill: rgba(0, 0, 0, 0); stroke: rgba(255, 255, 255, 0); stroke-width: 0px; stroke-dasharray: 10, 10; stroke-linecap: round; opacity: 1; transform: scale(1, 1); transform-origin: 44.9% 68.4%;" data-index="8" id="poly-549" points="488.3399393939394,631.08 498.23709090909085,628.2 505.30648484848484,621 515.2036363636363,622.4399999999999 526.5146666666666,619.5600000000001 536.4118181818181,622.4399999999999 544.8950909090909,622.4399999999999 551.9644848484847,618.12 557.62,619.5600000000001 553.3783636363636,625.32 551.9644848484847,628.2 549.1367272727273,631.08 543.481212121212,631.08 537.8256969696969,629.64 533.5840606060606,629.64 525.1007878787879,629.64 522.2730303030302,632.52 518.031393939394,632.52 518.031393939394,636.84 518.031393939394,644.04 523.686909090909,648.36 518.031393939394,648.36 512.3758787878787,648.36 503.892606060606,639.72 498.23709090909085,642.6 496.8232121212121,648.36 499.65096969696964,654.12 501.0648484848485,659.88 501.0648484848485,665.64 499.65096969696964,667.08 499.65096969696964,671.4 499.65096969696964,674.28 495.4093333333333,678.6 501.0648484848485,685.8000000000001 508.13424242424236,691.5600000000001 512.3758787878787,698.76 506.7203636363636,697.32 498.23709090909085,691.5600000000001 485.5121818181818,684.36 479.8566666666667,685.8000000000001 481.2705454545454,691.5600000000001 486.92606060606056,691.5600000000001 493.9954545454545,695.88 498.23709090909085,700.2 502.47872727272727,708.84 493.9954545454545,705.96 499.65096969696964,713.1600000000001 498.23709090909085,716.04 498.23709090909085,723.24 509.5481212121212,747.72 519.4452727272727,754.92 523.686909090909,752.04 529.3424242424242,753.48 532.1701818181818,756.3599999999999 536.4118181818181,756.3599999999999 542.0673333333333,756.3599999999999 539.2395757575757,760.6800000000001 533.5840606060606,762.12 525.1007878787879,763.5600000000001 518.031393939394,760.6800000000001 512.3758787878787,756.3599999999999 508.13424242424236,753.48 507.57151866666663,743.7302905263158 494.5581783030303,725.0102905263158 489.75381818181813,723.24 486.92606060606056,717.48 484.09830303030304,717.48 482.6844242424242,716.04 481.2705454545454,705.96 477.02890909090905,701.64 474.2011515151515,680.04 474.2011515151515,674.28 469.9595151515151,674.28 467.1317575757576,667.08 465.71787878787876,664.2 465.71787878787876,659.88 464.304,658.44 464.304,652.6800000000001 468.54563636363633,652.6800000000001 469.9595151515151,646.9200000000001 469.9595151515151,645.48 472.7872727272727,641.16 474.2011515151515,635.4 479.8566666666667,632.52 479.8566666666667,632.52            "></polygon>           <polygon class="imp-shape imp-shape-poly" style="width: 100%; height: 100%; fill: rgba(0, 0, 0, 0); stroke: rgba(255, 255, 255, 0); stroke-width: 0px; stroke-dasharray: 10, 10; stroke-linecap: round; opacity: 1; transform: scale(1, 1); transform-origin: 31.35% 60.35%;" data-index="9" id="poly-9397" points="285.0538938053097,664.2969426751592 287.8938584070796,654.0747133757961 287.8938584070796,645.3128025477706 287.8938584070796,638.0112101910828 285.0538938053097,632.1699363057324 289.3138407079646,633.63025477707 294.9937699115044,629.2492993630573 304.9336460176991,624.8683439490446 304.9336460176991,619.0270700636943 299.2537168141593,610.2651592356688 297.83373451327435,601.5032484076432 297.83373451327435,594.2016560509554 303.51366371681416,592.7413375796178 310.61357522123893,586.9000636942675 329.0733451327434,585.4397452229299 329.0733451327434,576.6778343949045 329.0733451327434,572.2968789808917 327.6533628318584,564.9952866242038 323.3934159292035,562.0746496815286 316.29350442477875,556.2333757961784 309.193592920354,551.8524203821656 302.0936814159292,553.3127388535032 286.47387610619467,567.915923566879 285.0538938053097,562.0746496815286 285.0538938053097,559.1540127388535 280.79394690265485,553.3127388535032 283.63391150442476,540.1698726114649 276.534,537.2492356687898 285.0538938053097,529.947643312102 286.47387610619467,519.7254140127388 293.57378761061943,521.1857324840764 304.9336460176991,510.9635031847134 307.773610619469,516.8047770700637 319.13346902654865,515.3444585987261 321.97343362831856,508.0428662420382 327.6533628318584,512.4238216560509 331.9133097345133,506.5825477707006 334.7532743362832,502.20159235668785 337.5932389380531,499.28095541401274 348.95309734513273,499.28095541401274 358.8929734513274,494.9 367.4128672566371,500.74127388535027 375.9327610619469,508.0428662420382 383.0326725663717,513.8841401273885 381.6126902654867,519.7254140127388 381.6126902654867,529.947643312102 375.9327610619469,522.646050955414 368.8328495575221,527.0270063694268 360.31295575221236,531.4079617834395 360.31295575221236,537.2492356687898 360.31295575221236,540.1698726114649 358.8929734513274,540.1698726114649 358.8929734513274,547.4714649681529 358.8929734513274,554.7730573248408 364.5729026548672,563.5349681528662 374.5127787610619,570.8365605095541 377.35274336283186,576.6778343949045 378.7727256637168,588.3603821656051 381.6126902654867,598.5826114649682 390.13258407079644,602.9635668789808 398.65247787610616,610.2651592356688 407.17237168141594,621.9477070063695 412.85230088495575,627.7889808917198 421.3721946902655,630.7096178343949 428.47210619469024,636.5508917197452 434.15203539823005,642.3921656050956 436.99199999999996,646.7731210191082 435.572017699115,655.5350318471337 432.7320530973451,646.7731210191082 427.0521238938053,646.7731210191082 419.9522123893805,640.931847133758 408.5923539823009,651.154076433121 408.5923539823009,658.4556687898089 412.85230088495575,664.2969426751592 412.85230088495575,673.0588535031847 408.5923539823009,677.4398089171974 405.752389380531,684.7414012738853 402.9124247787611,687.6620382165605 392.97254867256635,693.5033121019108 395.8125132743363,684.7414012738853 398.65247787610616,678.900127388535 398.65247787610616,670.1382165605096 398.65247787610616,662.8366242038217 397.2324955752212,652.6143949044585 394.39253097345136,652.6143949044585 385.8726371681416,646.7731210191082 385.8726371681416,640.931847133758 380.1927079646017,639.4715286624204 373.092796460177,629.2492993630573 368.8328495575221,626.3286624203822 364.5729026548672,624.8683439490446 358.8929734513274,621.9477070063695 353.2130442477876,614.6461146496815 348.95309734513273,608.8048407643312 346.1131327433628,605.884203821656 340.433203539823,597.1222929936306 334.7532743362832,589.8207006369427 312.0335575221239,594.2016560509554 312.0335575221239,597.1222929936306 312.0335575221239,601.5032484076432 310.61357522123893,605.884203821656 309.193592920354,613.1857961783439 306.3536283185841,616.1064331210191 300.67369911504426,630.7096178343949 306.3536283185841,632.1699363057324 309.193592920354,635.0905732484076 310.61357522123893,636.5508917197452 306.3536283185841,640.931847133758 304.9336460176991,645.3128025477706 304.9336460176991,651.154076433121 300.67369911504426,656.9953503184713 300.67369911504426,667.2175796178344 292.1538053097345,668.677898089172 344.6931504424779,697.8842675159235 348.95309734513273,693.5033121019108 357.47299115044245,696.4239490445859 363.15292035398227,696.4239490445859 367.4128672566371,696.4239490445859 373.092796460177,696.4239490445859 380.1927079646017,696.4239490445859 384.4526548672566,696.4239490445859 378.7727256637168,705.1858598726114 381.6126902654867,711.0271337579618 378.7727256637168,713.947770700637 378.7727256637168,718.3287261146496 377.35274336283186,724.17 373.092796460177,721.2493630573248 365.9928849557522,716.868407643312 357.47299115044245,712.4874522292993 353.2130442477876,708.1064968152866 346.1131327433628,703.7255414012739 341.85318584070797,697.8842675159235 296.4137522123894,670.1382165605096 290.7338230088495,668.677898089172            "></polygon>           <polygon class="imp-shape imp-shape-poly" style="width: 100%; height: 100%; fill: rgba(0, 0, 0, 0); stroke: rgba(255, 255, 255, 0); stroke-width: 0px; stroke-dasharray: 10, 10; stroke-linecap: round; opacity: 1; transform: scale(1, 1); transform-origin: 34.85% 51.25%;" data-index="10" id="poly-1704" points="402.17954545454546,519.0277777777778 411.956,512.0138888888889 411.956,505 402.17954545454546,506.40277777777777 392.4030909090909,510.6111111111111 384.02327272727274,510.6111111111111 384.02327272727274,516.2222222222222 385.41990909090913,520.4305555555555 381.23,530.25            "></polygon>           <polygon class="imp-shape imp-shape-poly" style="width: 100%; height: 100%; fill: rgba(0, 0, 0, 0); stroke: rgba(255, 255, 255, 0); stroke-width: 0px; stroke-dasharray: 10, 10; stroke-linecap: round; opacity: 1; transform: scale(1, 1); transform-origin: 42.8725% 15.224%;" data-index="11" id="poly-2812" points="426.31142662337663,151.98824588235297 428.6797967532468,133.06393529411767 434.6007220779221,120.0534717647059 435.78490714285715,114.13962470588235 455.9160532467533,111.77408588235294 454.7318681818182,102.31193058823527 464.2053487012987,86.93592823529411 473.6788292207792,64.46330941176471 487.88905,51.45284588235293 498.5467155844156,37.25961294117647 510.38856623376626,21.883610588235292 525.7829720779221,11.23868588235294 536.4406376623376,12.421455294117646 548.2824883116883,2.9593 574.3345597402598,21.883610588235292 574.3345597402598,33.711304705882355 576.7029298701299,47.904537647058824 573.1503746753247,56.183923529411764 573.1503746753247,66.82884823529412 579.0713000000001,76.29100352941177 564.8610792207792,76.29100352941177 554.2034136363636,77.47377294117648 548.2824883116883,88.11869764705882 539.9931928571428,95.21531411764707 542.361562987013,105.86023882352941 531.7038974025974,118.8707023529412 515.1253064935065,127.1500882352941 499.7309006493507,135.42947411764706 492.62579025974026,143.70886 487.88905,149.62270705882355 487.88905,155.53655411764706 485.5206798701299,166.1814788235294 480.78393961038967,169.72978705882355 479.5997545454546,182.7402505882353 481.9681246753247,193.38517529411766 486.70486493506496,196.93348352941175 493.80997532467535,206.39563882352945 491.4416051948052,214.67502470588235 478.4155694805195,212.30948588235296 463.02116363636367,214.67502470588235 477.23138441558444,226.50271882352945 468.94208896103896,234.7821047058824 461.83697857142863,234.7821047058824 463.02116363636367,241.87872117647063 459.4686084415585,250.15810705882353 460.65279350649354,258.43749294117646 460.65279350649354,265.5341094117647 454.7318681818182,271.4479564705882 451.179312987013,280.91011176470585 445.25838766233767,286.8239588235294 440.5216474025974,290.37226705882347 432.232351948052,290.37226705882347 420.39050129870134,297.46888352941176 421.5746863636364,303.3827305882353 412.10120584415586,303.3827305882353 403.81191038961043,304.5655 407.3644655844156,295.10334470588236 408.5486506493507,282.09288117647054 406.18028051948056,273.8134952941176 404.9960954545455,263.1685705882353 402.62772532467534,263.1685705882353 404.9960954545455,245.42702941176472 396.70680000000004,237.14764352941182 399.0751701298702,231.23379647058823 403.81191038961043,231.23379647058823 406.18028051948056,213.49225529411765 415.6537610389611,204.03009999999998 418.0221311688312,198.11625294117647 421.5746863636364,193.38517529411766 420.39050129870134,182.7402505882353 427.4956116883117,175.64363411764705 425.1272415584416,164.9987094117647            "></polygon></svg>